<svg data-v-423bf9ae="" xmlns="http://www.w3.org/2000/svg" viewBox="0 0 394.1666769161427 60" class="font"><!----><!----><!----><g data-v-423bf9ae="" id="22013d80-5817-4418-9f20-dc52d98ad8a9" fill="black" transform="matrix(5.952381134033203,0,0,5.952381134033203,-5.238101005554199,-24.107145309448242)"><path d="M4.30 14.13Q3.29 14.13 2.51 13.73Q1.74 13.33 1.31 12.59Q0.88 11.86 0.88 10.91L0.88 10.91L0.88 7.28Q0.88 6.33 1.31 5.61Q1.74 4.89 2.51 4.49Q3.29 4.09 4.30 4.09L4.30 4.09Q5.31 4.09 6.08 4.47Q6.85 4.86 7.27 5.56Q7.70 6.26 7.70 7.18L7.70 7.18Q7.70 7.32 7.49 7.35L7.49 7.35L6.57 7.41L6.51 7.41Q6.44 7.41 6.40 7.38Q6.36 7.35 6.36 7.32L6.36 7.32L6.36 7.24Q6.36 6.34 5.80 5.80Q5.24 5.25 4.30 5.25L4.30 5.25Q3.36 5.25 2.79 5.80Q2.23 6.34 2.23 7.24L2.23 7.24L2.23 10.96Q2.23 11.86 2.79 12.40Q3.36 12.95 4.30 12.95L4.30 12.95Q5.24 12.95 5.80 12.40Q6.36 11.86 6.36 10.96L6.36 10.96Q6.36 10.88 6.41 10.84Q6.47 10.79 6.57 10.81L6.57 10.81L7.49 10.86Q7.70 10.89 7.70 10.93L7.70 10.93L7.70 11.00Q7.70 11.93 7.27 12.63Q6.85 13.34 6.08 13.73Q5.31 14.13 4.30 14.13L4.30 14.13ZM12.39 14.11Q11.34 14.11 10.58 13.59Q9.81 13.06 9.51 12.12L9.51 12.12Q9.25 11.37 9.25 10.42L9.25 10.42Q9.25 9.42 9.49 8.74L9.49 8.74Q9.80 7.81 10.57 7.29Q11.34 6.76 12.40 6.76L12.40 6.76Q13.41 6.76 14.16 7.29Q14.91 7.81 15.23 8.72L15.23 8.72Q15.48 9.44 15.48 10.40L15.48 10.40Q15.48 11.38 15.23 12.12L15.23 12.12Q14.92 13.06 14.17 13.59Q13.41 14.11 12.39 14.11L12.39 14.11ZM12.39 12.95Q12.95 12.95 13.37 12.63Q13.79 12.32 13.97 11.75L13.97 11.75Q14.13 11.21 14.13 10.43L14.13 10.43Q14.13 9.65 13.99 9.13L13.99 9.13Q13.80 8.55 13.38 8.24Q12.96 7.92 12.36 7.92L12.36 7.92Q11.79 7.92 11.37 8.24Q10.95 8.55 10.77 9.13L10.77 9.13Q10.61 9.62 10.61 10.43L10.61 10.43Q10.61 11.24 10.77 11.75L10.77 11.75Q10.93 12.32 11.36 12.63Q11.79 12.95 12.39 12.95L12.39 12.95ZM21.57 4.41Q21.57 4.31 21.63 4.26Q21.69 4.20 21.78 4.20L21.78 4.20L22.71 4.20Q22.81 4.20 22.86 4.26Q22.92 4.31 22.92 4.41L22.92 4.41L22.92 13.79Q22.92 13.89 22.86 13.94Q22.81 14 22.71 14L22.71 14L21.78 14Q21.69 14 21.63 13.94Q21.57 13.89 21.57 13.79L21.57 13.79L21.57 13.43Q21.57 13.38 21.55 13.37Q21.52 13.36 21.49 13.38L21.49 13.38Q21.18 13.73 20.77 13.92Q20.36 14.11 19.87 14.11L19.87 14.11Q18.86 14.11 18.19 13.62Q17.53 13.12 17.22 12.21L17.22 12.21Q16.97 11.51 16.97 10.42L16.97 10.42Q16.97 9.39 17.18 8.72L17.18 8.72Q17.47 7.80 18.15 7.28Q18.83 6.76 19.87 6.76L19.87 6.76Q20.36 6.76 20.77 6.94Q21.18 7.13 21.49 7.48L21.49 7.48Q21.52 7.50 21.55 7.50Q21.57 7.49 21.57 7.45L21.57 7.45L21.57 4.41ZM21.22 12.19Q21.56 11.58 21.56 10.43L21.56 10.43Q21.56 9.28 21.20 8.64L21.20 8.64Q20.79 7.92 20.01 7.92L20.01 7.92Q19.19 7.92 18.76 8.60L18.76 8.60Q18.31 9.30 18.31 10.44L18.31 10.44Q18.31 11.52 18.66 12.18L18.66 12.18Q19.07 12.95 20.01 12.95L20.01 12.95Q20.80 12.95 21.22 12.19L21.22 12.19ZM27.89 12.96Q29.02 12.95 29.51 12.08L29.51 12.08Q29.58 11.96 29.67 11.96L29.67 11.96Q29.74 11.96 29.79 12.00L29.79 12.00L30.37 12.35Q30.48 12.42 30.48 12.53L30.48 12.53L30.45 12.64Q30.07 13.33 29.38 13.72Q28.69 14.11 27.76 14.11L27.76 14.11Q26.77 14.11 26.08 13.67Q25.40 13.23 25.05 12.40L25.05 12.40Q24.70 11.55 24.70 10.40L24.70 10.40Q24.70 9.38 24.85 8.85L24.85 8.85Q25.10 7.88 25.86 7.32Q26.61 6.76 27.69 6.76L27.69 6.76Q29.02 6.76 29.72 7.46Q30.42 8.15 30.63 9.46L30.63 9.46Q30.70 9.98 30.73 10.72L30.73 10.72Q30.73 10.93 30.52 10.93L30.52 10.93L26.10 10.93Q26.03 10.93 26.03 11.00L26.03 11.00Q26.05 11.54 26.12 11.76L26.12 11.76Q26.28 12.32 26.74 12.64Q27.20 12.96 27.89 12.96L27.89 12.96ZM27.69 7.92Q27.08 7.92 26.69 8.22Q26.31 8.51 26.17 9.03L26.17 9.03Q26.07 9.34 26.04 9.81L26.04 9.81Q26.04 9.88 26.11 9.88L26.11 9.88L29.29 9.88Q29.36 9.88 29.36 9.81L29.36 9.81Q29.33 9.35 29.27 9.13L29.27 9.13Q29.13 8.58 28.72 8.25Q28.31 7.92 27.69 7.92L27.69 7.92ZM38.54 14.13Q37.53 14.13 36.76 13.73Q35.98 13.33 35.55 12.59Q35.13 11.86 35.13 10.91L35.13 10.91L35.13 7.28Q35.13 6.33 35.55 5.61Q35.98 4.89 36.76 4.49Q37.53 4.09 38.54 4.09L38.54 4.09Q39.55 4.09 40.32 4.47Q41.09 4.86 41.52 5.56Q41.94 6.26 41.94 7.18L41.94 7.18Q41.94 7.32 41.73 7.35L41.73 7.35L40.81 7.41L40.75 7.41Q40.68 7.41 40.64 7.38Q40.60 7.35 40.60 7.32L40.60 7.32L40.60 7.24Q40.60 6.34 40.04 5.80Q39.48 5.25 38.54 5.25L38.54 5.25Q37.60 5.25 37.04 5.80Q36.47 6.34 36.47 7.24L36.47 7.24L36.47 10.96Q36.47 11.86 37.04 12.40Q37.60 12.95 38.54 12.95L38.54 12.95Q39.48 12.95 40.04 12.40Q40.60 11.86 40.60 10.96L40.60 10.96Q40.60 10.88 40.66 10.84Q40.71 10.79 40.81 10.81L40.81 10.81L41.73 10.86Q41.94 10.89 41.94 10.93L41.94 10.93L41.94 11.00Q41.94 11.93 41.52 12.63Q41.09 13.34 40.32 13.73Q39.55 14.13 38.54 14.13L38.54 14.13ZM46.26 6.76Q47.11 6.76 47.75 7.06Q48.38 7.36 48.73 7.90Q49.07 8.44 49.07 9.13L49.07 9.13L49.07 13.79Q49.07 13.89 49.01 13.94Q48.96 14 48.86 14L48.86 14L47.94 14Q47.84 14 47.78 13.94Q47.73 13.89 47.73 13.79L47.73 13.79L47.73 13.40Q47.73 13.36 47.70 13.34Q47.67 13.33 47.64 13.36L47.64 13.36Q47.25 13.72 46.71 13.92Q46.17 14.11 45.54 14.11L45.54 14.11Q44.52 14.11 43.86 13.59Q43.20 13.06 43.20 12.00L43.20 12.00Q43.20 10.91 43.97 10.28Q44.73 9.66 46.10 9.66L46.10 9.66L47.66 9.66Q47.73 9.66 47.73 9.59L47.73 9.59L47.73 9.23Q47.73 8.61 47.37 8.27Q47.01 7.92 46.28 7.92L46.28 7.92Q45.71 7.92 45.35 8.13Q45.00 8.34 44.88 8.72L44.88 8.72Q44.83 8.90 44.65 8.89L44.65 8.89L43.64 8.76Q43.54 8.75 43.48 8.70Q43.43 8.65 43.44 8.58L43.44 8.58Q43.57 7.78 44.34 7.27Q45.12 6.76 46.26 6.76L46.26 6.76ZM45.88 12.98Q46.62 12.98 47.17 12.59Q47.73 12.19 47.73 11.59L47.73 11.59L47.73 10.78Q47.73 10.71 47.66 10.71L47.66 10.71L46.35 10.71Q45.53 10.71 45.04 11.03Q44.55 11.35 44.55 11.93L44.55 11.93Q44.55 12.45 44.92 12.71Q45.29 12.98 45.88 12.98L45.88 12.98ZM54.00 6.80Q54.42 6.80 54.75 6.96L54.75 6.96Q54.91 7.04 54.87 7.22L54.87 7.22L54.67 8.13Q54.66 8.27 54.53 8.27L54.53 8.27Q54.46 8.27 54.42 8.26L54.42 8.26Q54.21 8.19 53.94 8.19L53.94 8.19Q53.80 8.19 53.73 8.20L53.73 8.20Q53.07 8.23 52.65 8.66Q52.22 9.09 52.22 9.77L52.22 9.77L52.22 13.79Q52.22 13.89 52.16 13.94Q52.11 14 52.01 14L52.01 14L51.09 14Q50.99 14 50.93 13.94Q50.88 13.89 50.88 13.79L50.88 13.79L50.88 7.08Q50.88 6.99 50.93 6.93Q50.99 6.87 51.09 6.87L51.09 6.87L52.01 6.87Q52.11 6.87 52.16 6.93Q52.22 6.99 52.22 7.08L52.22 7.08L52.22 7.73Q52.22 7.78 52.24 7.79Q52.26 7.80 52.29 7.76L52.29 7.76Q52.92 6.80 54.00 6.80L54.00 6.80ZM59.19 6.80Q59.61 6.80 59.95 6.96L59.95 6.96Q60.10 7.04 60.06 7.22L60.06 7.22L59.86 8.13Q59.85 8.27 59.72 8.27L59.72 8.27Q59.65 8.27 59.61 8.26L59.61 8.26Q59.40 8.19 59.14 8.19L59.14 8.19Q59.00 8.19 58.93 8.20L58.93 8.20Q58.27 8.23 57.84 8.66Q57.41 9.09 57.41 9.77L57.41 9.77L57.41 13.79Q57.41 13.89 57.36 13.94Q57.30 14 57.20 14L57.20 14L56.28 14Q56.18 14 56.13 13.94Q56.07 13.89 56.07 13.79L56.07 13.79L56.07 7.08Q56.07 6.99 56.13 6.93Q56.18 6.87 56.28 6.87L56.28 6.87L57.20 6.87Q57.30 6.87 57.36 6.93Q57.41 6.99 57.41 7.08L57.41 7.08L57.41 7.73Q57.41 7.78 57.43 7.79Q57.46 7.80 57.48 7.76L57.48 7.76Q58.11 6.80 59.19 6.80L59.19 6.80ZM64.26 12.96Q65.39 12.95 65.88 12.08L65.88 12.08Q65.95 11.96 66.04 11.96L66.04 11.96Q66.11 11.96 66.16 12.00L66.16 12.00L66.74 12.35Q66.85 12.42 66.85 12.53L66.85 12.53L66.82 12.64Q66.44 13.33 65.75 13.72Q65.06 14.11 64.13 14.11L64.13 14.11Q63.14 14.11 62.45 13.67Q61.77 13.23 61.42 12.40L61.42 12.40Q61.07 11.55 61.07 10.40L61.07 10.40Q61.07 9.38 61.22 8.85L61.22 8.85Q61.47 7.88 62.23 7.32Q62.99 6.76 64.06 6.76L64.06 6.76Q65.39 6.76 66.09 7.46Q66.79 8.15 67.00 9.46L67.00 9.46Q67.07 9.98 67.10 10.72L67.10 10.72Q67.10 10.93 66.89 10.93L66.89 10.93L62.47 10.93Q62.40 10.93 62.40 11.00L62.40 11.00Q62.43 11.54 62.50 11.76L62.50 11.76Q62.65 12.32 63.11 12.64Q63.57 12.96 64.26 12.96L64.26 12.96ZM64.06 7.92Q63.45 7.92 63.06 8.22Q62.68 8.51 62.54 9.03L62.54 9.03Q62.44 9.34 62.41 9.81L62.41 9.81Q62.41 9.88 62.48 9.88L62.48 9.88L65.66 9.88Q65.73 9.88 65.73 9.81L65.73 9.81Q65.70 9.35 65.65 9.13L65.65 9.13Q65.51 8.58 65.09 8.25Q64.68 7.92 64.06 7.92L64.06 7.92ZM63.55 5.82Q63.38 5.82 63.38 5.68L63.38 5.68L63.41 5.57L64.15 4.20Q64.22 4.05 64.40 4.05L64.40 4.05L65.27 4.05Q65.35 4.05 65.40 4.08Q65.45 4.12 65.45 4.17L65.45 4.17Q65.45 4.23 65.41 4.30L65.41 4.30L64.51 5.68Q64.43 5.82 64.26 5.82L64.26 5.82L63.55 5.82Z"></path></g><!----><!----></svg>