<svg data-v-423bf9ae="" xmlns="http://www.w3.org/2000/svg" viewBox="0 0 365.3531459338591 60" class="font"><!----><!----><defs data-v-423bf9ae=""><linearGradient data-v-423bf9ae="" gradientTransform="rotate(25)" id="6b6b39b0-cb64-436c-82f3-e6690b00c408" x1="0%" y1="0%" x2="100%" y2="0%"><stop data-v-423bf9ae="" offset="0%" style="stop-color: rgb(121, 35, 0); stop-opacity: 1;"></stop><stop data-v-423bf9ae="" offset="100%" style="stop-color: rgb(243, 112, 0); stop-opacity: 1;"></stop></linearGradient></defs><g data-v-423bf9ae="" id="be23f28f-d647-4018-848a-746b02d473dd" fill="url(#6b6b39b0-cb64-436c-82f3-e6690b00c408)" transform="matrix(4.460966110229492,0,0,4.460966110229492,-0.4906999170780182,-15.613380432128906)"><path d="M8.41 3.78L4.96 12.94L1.34 3.78L0.11 3.78L4.34 14L5.53 14L9.56 3.78ZM9.70 10.33C9.70 12.45 11.28 14.14 13.51 14.14C15.72 14.14 17.30 12.45 17.30 10.33C17.30 8.25 15.72 6.58 13.51 6.58C11.28 6.58 9.70 8.25 9.70 10.33ZM10.74 10.36C10.74 8.76 11.89 7.49 13.51 7.49C15.12 7.49 16.25 8.76 16.25 10.36C16.25 11.94 15.12 13.23 13.51 13.23C11.89 13.23 10.74 11.94 10.74 10.36ZM22.71 6.58C21.94 6.58 21.07 6.97 20.13 7.76L19.95 6.72L19.21 6.72L19.21 14L20.24 14L20.24 8.75C21.15 7.98 21.90 7.59 22.51 7.59C22.83 7.59 23.11 7.64 23.35 7.73L23.48 6.71C23.27 6.64 23.02 6.58 22.71 6.58ZM24.02 7.62L25.16 7.62L25.16 12.00C25.16 13.57 26.03 14.14 27.15 14.14C27.89 14.14 28.59 13.99 29.16 13.73L29.05 12.84C28.53 13.06 27.94 13.22 27.30 13.22C26.61 13.22 26.19 12.85 26.19 11.98L26.19 7.62L29.12 7.62L29.12 6.72L26.19 6.72L26.19 4.65L25.19 4.91L25.19 6.72L24.02 6.72ZM33.61 6.58C31.57 6.58 29.99 8.19 29.99 10.33C29.99 12.50 31.53 14.14 33.63 14.14C35.29 14.14 36.55 13.06 36.79 11.76L35.80 11.76C35.59 12.66 34.73 13.23 33.63 13.23C32.19 13.23 31.12 12.15 31.01 10.63L36.83 10.63L36.93 10.54C37.11 8.41 35.63 6.58 33.61 6.58ZM31.05 9.74C31.30 8.39 32.37 7.48 33.60 7.48C34.89 7.48 35.78 8.48 35.92 9.76ZM44.66 14L41.71 10.30L44.41 6.72L43.26 6.72L41.09 9.67L38.84 6.72L37.60 6.72L40.42 10.23L37.51 14L38.70 14L41.03 10.92L43.40 14ZM47.38 12.99L47.38 3.78L46.28 3.78L46.28 14L52.64 14L52.64 12.99ZM53.20 10.33C53.20 12.45 54.78 14.14 57.01 14.14C59.22 14.14 60.80 12.45 60.80 10.33C60.80 8.25 59.22 6.58 57.01 6.58C54.78 6.58 53.20 8.25 53.20 10.33ZM54.24 10.36C54.24 8.76 55.38 7.49 57.01 7.49C58.62 7.49 59.75 8.76 59.75 10.36C59.75 11.94 58.62 13.23 57.01 13.23C55.38 13.23 54.24 11.94 54.24 10.36ZM68.75 6.72L68.59 7.87C67.96 7.03 67.02 6.58 65.84 6.58C63.80 6.58 62.16 8.20 62.16 10.32C62.16 12.46 63.78 14.07 65.87 14.07C67.03 14.07 67.90 13.65 68.52 12.87L68.52 13.71C68.52 15.11 67.38 16.06 65.95 16.06C64.82 16.06 63.87 15.57 63.70 14.80L62.69 14.80C62.99 16.10 64.26 16.95 65.95 16.95C67.97 16.95 69.48 15.64 69.48 13.71L69.48 6.72ZM65.91 13.17C64.46 13.17 63.22 11.91 63.22 10.32C63.22 8.72 64.46 7.49 65.91 7.49C67.12 7.49 67.98 8.13 68.45 9.09L68.45 11.56C67.96 12.56 67.12 13.17 65.91 13.17ZM72.51 5.10C72.94 5.10 73.30 4.73 73.30 4.27C73.30 3.85 72.94 3.50 72.51 3.50C72.06 3.50 71.71 3.85 71.71 4.27C71.71 4.73 72.06 5.10 72.51 5.10ZM73.00 6.72L71.95 6.72L71.95 14L73.00 14ZM81.00 9.30L82.01 9.30C81.90 7.94 80.58 6.58 78.65 6.58C76.50 6.58 74.93 8.20 74.93 10.33C74.93 12.47 76.50 14.14 78.68 14.14C80.42 14.14 81.83 13.03 81.98 11.54L80.98 11.54C80.79 12.57 79.86 13.23 78.65 13.23C77.20 13.23 75.99 12.07 75.99 10.36C75.99 8.69 77.15 7.49 78.68 7.49C80.00 7.49 80.91 8.44 81.00 9.30Z"></path></g><!----><!----></svg>